<?xml version="1.0" encoding="UTF-8"?> <svg xmlns="http://www.w3.org/2000/svg" width="16" height="10" viewBox="0 0 16 10" fill="none"> <path d="M15.0158 9.70175H13.4149C12.8093 9.70175 12.6231 9.21714 11.5364 8.10702C10.5891 7.18576 10.1701 7.05951 9.9355 7.05951C9.60935 7.05951 9.51605 7.15163 9.51605 7.60674V9.06102C9.51605 9.45212 9.39164 9.68652 8.36705 9.68652C6.67471 9.68652 4.79616 8.65468 3.4761 6.73109C1.48871 3.91655 0.945312 1.80543 0.945312 1.36782C0.945312 1.13335 1.03679 0.914551 1.4887 0.914551H3.08959C3.49345 0.914551 3.64855 1.10201 3.80357 1.54013C4.59537 3.83871 5.91543 5.85589 6.4565 5.85589C6.65824 5.85589 6.75153 5.76369 6.75153 5.24598V2.86904C6.68929 1.7746 6.11482 1.68058 6.11482 1.28998C6.11482 1.10252 6.26992 0.914551 6.51874 0.914551L9.03437 0.914551C9.37605 0.914551 9.50002 1.10201 9.50002 1.50878V4.71392C9.50002 5.05801 9.65511 5.18286 9.7484 5.18286C9.95014 5.18286 10.1212 5.05757 10.4935 4.68258C11.1768 3.91091 11.7448 2.89021 12.0929 2.18965C12.3564 1.65941 12.5721 0.930222 13.1643 0.930222H14.7652C15.2463 0.930222 15.3552 1.18036 15.2463 1.52446C15.1066 2.17449 14.1248 3.70998 13.5347 4.59207C13.241 5.03099 12.7727 5.5416 13.0883 5.96499C13.259 6.19947 13.8202 6.68408 14.1906 7.12212C14.874 7.90528 15.4019 8.56073 15.5414 9.01401C15.6992 9.46728 15.4659 9.70175 15.0158 9.70175Z" fill="#882772"></path> </svg> 