<?xml version="1.0" encoding="UTF-8"?> <svg xmlns="http://www.w3.org/2000/svg" width="10" height="10" viewBox="0 0 10 10" fill="none"> <path fill-rule="evenodd" clip-rule="evenodd" d="M5.04546 0.171875C6.3388 0.172384 7.5528 0.673431 8.46562 1.58301C9.37857 2.49252 9.88095 3.70136 9.88013 4.98724C9.87898 7.64007 7.70994 9.79873 5.04527 9.79873H5.04336C4.23426 9.79841 3.43911 9.59644 2.73297 9.21306L0.169922 9.88208L0.855876 7.38869C0.432893 6.65912 0.210227 5.8313 0.210545 4.98323C0.211564 2.33021 2.3806 0.171875 5.04546 0.171875ZM6.42431 5.59959C6.53517 5.63971 7.12899 5.9305 7.24984 5.99074C7.27321 6.00233 7.29505 6.01283 7.3153 6.02264C7.39992 6.06333 7.45697 6.09083 7.48136 6.13133C7.51147 6.18144 7.51147 6.42225 7.41081 6.70312C7.31014 6.98392 6.82762 7.24014 6.59547 7.27465C6.38719 7.30566 6.1239 7.31852 5.8345 7.22696C5.65896 7.17156 5.43406 7.0977 5.14575 6.97379C4.01281 6.48688 3.24726 5.39386 3.10304 5.18801C3.09304 5.17368 3.08598 5.16362 3.08209 5.1584L3.08158 5.15783C3.01944 5.0755 2.58875 4.50511 2.58875 3.91473C2.58875 3.36122 2.86184 3.07106 2.98773 2.93728C2.99639 2.92804 3.00441 2.91951 3.01154 2.91174C3.1224 2.79134 3.25325 2.76128 3.33373 2.76128C3.41421 2.76128 3.49489 2.76192 3.56525 2.76549C3.57391 2.76593 3.58301 2.76587 3.59231 2.7658C3.66273 2.76536 3.75047 2.76485 3.83707 2.97179C3.8705 3.0517 3.91946 3.17039 3.9711 3.29538C4.07495 3.54689 4.18944 3.82425 4.20956 3.86449C4.23974 3.92466 4.25992 3.99483 4.21962 4.07512C4.21344 4.08728 4.20777 4.09881 4.20236 4.10976C4.17218 4.17095 4.1499 4.21616 4.09877 4.27563C4.07864 4.299 4.05789 4.32421 4.03713 4.34936C3.99549 4.39986 3.95385 4.45035 3.91761 4.48633C3.85706 4.54618 3.79415 4.61119 3.86464 4.73166C3.93519 4.85187 4.17766 5.24557 4.53678 5.56445C4.9227 5.90714 5.25813 6.05193 5.42827 6.12534C5.46157 6.13974 5.4885 6.15139 5.50831 6.16119C5.62897 6.22143 5.69945 6.21149 5.76994 6.1312C5.84049 6.05091 6.07194 5.78023 6.15249 5.65983C6.23297 5.53936 6.31365 5.55948 6.42431 5.59959Z" fill="#882772"></path> </svg> 