<?xml version="1.0" encoding="UTF-8"?> <svg xmlns="http://www.w3.org/2000/svg" width="28" height="26" viewBox="0 0 28 26" fill="none"><path d="M27.1366 5.10365H21.4648V4.89956C21.4648 2.19773 19.2667 0 16.5649 0H11.0968C8.39499 0 6.19726 2.19773 6.19726 4.89956V5.10365H0.525103C0.235246 5.10365 0 5.3389 0 5.62875V24.9494C0 25.2392 0.235246 25.4745 0.525103 25.4745H27.137C27.4268 25.4745 27.6621 25.2392 27.6621 24.9494V5.62875C27.6617 5.3389 27.4265 5.10365 27.1366 5.10365ZM7.24747 4.89956C7.24747 2.77709 8.97436 1.05021 11.0968 1.05021H16.5649C18.6874 1.05021 20.4146 2.77709 20.4146 4.89956V5.10365H7.24747V4.89956ZM26.6115 6.15386V12.3945H16.2005C15.9106 12.3945 15.6754 12.6298 15.6754 12.9196V14.9248C15.6754 16.0422 14.7662 16.9514 13.6488 16.9514C12.5314 16.9514 11.6219 16.0422 11.6219 14.9248V12.9196C11.6219 12.6298 11.3867 12.3945 11.0968 12.3945H1.05021V6.15386H26.6115ZM1.05021 24.4246V13.4451H10.5717V14.9252C10.5717 16.622 11.952 18.0019 13.6488 18.0019C15.3456 18.0019 16.7256 16.622 16.7256 14.9252V13.4451H26.6115V24.4246H1.05021Z" fill="#6C87B6"></path></svg> 