<?xml version="1.0" encoding="UTF-8"?> <svg xmlns="http://www.w3.org/2000/svg" width="31" height="28" viewBox="0 0 31 28" fill="none"><path d="M4.00708 21.6269C4.00708 23.4808 5.5154 24.9895 7.36966 24.9895C9.22392 24.9895 10.7322 23.4808 10.7322 21.6269C10.7322 19.773 9.22392 18.2643 7.36966 18.2643C5.5154 18.2643 4.00708 19.7727 4.00708 21.6269ZM9.62697 21.6269C9.62697 22.8714 8.61419 23.8842 7.36966 23.8842C6.12513 23.8842 5.11234 22.8714 5.11234 21.6269C5.11234 20.3824 6.12513 19.3696 7.36966 19.3696C8.61419 19.3696 9.62697 20.3824 9.62697 21.6269Z" fill="#6C87B6"></path><path d="M30.5335 9.06961C30.3059 8.86661 29.957 8.88613 29.7532 9.11382L21.7264 18.1044L17.5942 13.9722C17.3783 13.7563 17.0287 13.7563 16.8128 13.9722C16.5969 14.1881 16.5969 14.5377 16.8128 14.7536L21.3587 19.2992C21.4626 19.4031 21.603 19.4609 21.7496 19.4609C21.7548 19.4609 21.76 19.4609 21.7651 19.4606C21.9169 19.4561 22.0606 19.3898 22.1619 19.2763L30.5781 9.84955C30.7811 9.62224 30.7612 9.27261 30.5335 9.06961Z" fill="#6C87B6"></path><path d="M21.9398 20.8427C21.6344 20.8427 21.3872 21.0903 21.3872 21.3953V26.8947H1.81889V1.10526H21.3872V12.6836C21.3872 12.9887 21.6344 13.2363 21.9398 13.2363C22.2453 13.2363 22.4925 12.9887 22.4925 12.6836V0.552632C22.4925 0.247579 22.2453 0 21.9398 0H1.26625C0.960834 0 0.713623 0.247579 0.713623 0.552632V27.4474C0.713623 27.7524 0.960834 28 1.26625 28H21.9398C22.2453 28 22.4925 27.7524 22.4925 27.4474V21.3953C22.4925 21.0903 22.2453 20.8427 21.9398 20.8427Z" fill="#6C87B6"></path><path d="M15.4803 7.45127C15.7857 7.45127 16.033 7.20369 16.033 6.89864C16.033 6.59359 15.7857 6.34601 15.4803 6.34601H4.37758C4.07216 6.34601 3.82495 6.59359 3.82495 6.89864C3.82495 7.20369 4.07216 7.45127 4.37758 7.45127H15.4803Z" fill="#6C87B6"></path><path d="M16.1687 11.8151C16.1687 11.5101 15.9215 11.2625 15.616 11.2625H4.51625C4.21083 11.2625 3.96362 11.5101 3.96362 11.8151C3.96362 12.1202 4.21083 12.3678 4.51625 12.3678H15.616C15.9215 12.3678 16.1687 12.1202 16.1687 11.8151Z" fill="#6C87B6"></path></svg> 