<?xml version="1.0" encoding="UTF-8"?> <svg xmlns="http://www.w3.org/2000/svg" width="33" height="33" viewBox="0 0 33 33" fill="none"><path d="M12.906 8.82176C13.036 8.82176 13.1606 8.77012 13.2525 8.67821C13.3445 8.5863 13.3961 8.46164 13.3961 8.33166V6.37126C13.3961 6.24128 13.3445 6.11662 13.2525 6.02471C13.1606 5.9328 13.036 5.88116 12.906 5.88116C12.776 5.88116 12.6514 5.9328 12.5594 6.02471C12.4675 6.11662 12.4159 6.24128 12.4159 6.37126V8.33166C12.4159 8.46164 12.4675 8.5863 12.5594 8.67821C12.6514 8.77012 12.776 8.82176 12.906 8.82176Z" fill="#6C87B6"></path><path d="M17.1534 8.82176C17.2834 8.82176 17.4081 8.77012 17.5 8.67821C17.5919 8.5863 17.6435 8.46164 17.6435 8.33166V6.37126C17.6435 6.24128 17.5919 6.11662 17.5 6.02471C17.4081 5.9328 17.2834 5.88116 17.1534 5.88116C17.0234 5.88116 16.8988 5.9328 16.8069 6.02471C16.715 6.11662 16.6633 6.24128 16.6633 6.37126V8.33166C16.6633 8.46164 16.715 8.5863 16.8069 8.67821C16.8988 8.77012 17.0234 8.82176 17.1534 8.82176Z" fill="#6C87B6"></path><path d="M12.4159 16.1733C12.4159 16.3033 12.4675 16.4279 12.5594 16.5198C12.6514 16.6117 12.776 16.6634 12.906 16.6634C13.036 16.6634 13.1606 16.6117 13.2525 16.5198C13.3445 16.4279 13.3961 16.3033 13.3961 16.1733V14.2129C13.3961 14.0829 13.3445 13.9582 13.2525 13.8663C13.1606 13.7744 13.036 13.7228 12.906 13.7228C12.776 13.7228 12.6514 13.7744 12.5594 13.8663C12.4675 13.9582 12.4159 14.0829 12.4159 14.2129V16.1733Z" fill="#6C87B6"></path><path d="M16.6633 16.1733C16.6633 16.3033 16.715 16.4279 16.8069 16.5198C16.8988 16.6117 17.0234 16.6634 17.1534 16.6634C17.2834 16.6634 17.4081 16.6117 17.5 16.5198C17.5919 16.4279 17.6435 16.3033 17.6435 16.1733V14.2129C17.6435 14.0829 17.5919 13.9582 17.5 13.8663C17.4081 13.7744 17.2834 13.7228 17.1534 13.7228C17.0234 13.7228 16.8988 13.7744 16.8069 13.8663C16.715 13.9582 16.6633 14.0829 16.6633 14.2129V16.1733Z" fill="#6C87B6"></path><path d="M12.4159 24.0148C12.4159 24.1448 12.4675 24.2695 12.5594 24.3614C12.6514 24.4533 12.776 24.5049 12.906 24.5049C13.036 24.5049 13.1606 24.4533 13.2525 24.3614C13.3445 24.2695 13.3961 24.1448 13.3961 24.0148V22.0544C13.3961 21.9244 13.3445 21.7998 13.2525 21.7079C13.1606 21.616 13.036 21.5643 12.906 21.5643C12.776 21.5643 12.6514 21.616 12.5594 21.7079C12.4675 21.7998 12.4159 21.9244 12.4159 22.0544V24.0148Z" fill="#6C87B6"></path><path d="M16.6633 24.0148C16.6633 24.1448 16.715 24.2695 16.8069 24.3614C16.8988 24.4533 17.0234 24.5049 17.1534 24.5049C17.2834 24.5049 17.4081 24.4533 17.5 24.3614C17.5919 24.2695 17.6435 24.1448 17.6435 24.0148V22.0544C17.6435 21.9244 17.5919 21.7998 17.5 21.7079C17.4081 21.616 17.2834 21.5643 17.1534 21.5643C17.0234 21.5643 16.8988 21.616 16.8069 21.7079C16.715 21.7998 16.6633 21.9244 16.6633 22.0544V24.0148Z" fill="#6C87B6"></path><path d="M5.06432 14.0495C4.93434 14.0495 4.80968 14.1011 4.71777 14.193C4.62585 14.285 4.57422 14.4096 4.57422 14.5396V16.5C4.57422 16.63 4.62585 16.7546 4.71777 16.8465C4.80968 16.9385 4.93434 16.9901 5.06432 16.9901C5.1943 16.9901 5.31896 16.9385 5.41087 16.8465C5.50278 16.7546 5.55442 16.63 5.55442 16.5V14.5396C5.55442 14.4096 5.50278 14.285 5.41087 14.193C5.31896 14.1011 5.1943 14.0495 5.06432 14.0495V14.0495Z" fill="#6C87B6"></path><path d="M23.5248 17.1535V19.1139C23.5248 19.2439 23.5764 19.3685 23.6683 19.4604C23.7602 19.5524 23.8849 19.604 24.0149 19.604C24.1449 19.604 24.2695 19.5524 24.3614 19.4604C24.4533 19.3685 24.505 19.2439 24.505 19.1139V17.1535C24.505 17.0235 24.4533 16.8988 24.3614 16.8069C24.2695 16.715 24.1449 16.6634 24.0149 16.6634C23.8849 16.6634 23.7602 16.715 23.6683 16.8069C23.5764 16.8988 23.5248 17.0235 23.5248 17.1535Z" fill="#6C87B6"></path><path d="M28.2623 16.6634C28.1323 16.6634 28.0077 16.715 27.9158 16.8069C27.8239 16.8988 27.7722 17.0235 27.7722 17.1535V19.1139C27.7722 19.2439 27.8239 19.3685 27.9158 19.4604C28.0077 19.5524 28.1323 19.604 28.2623 19.604C28.3923 19.604 28.517 19.5524 28.6089 19.4604C28.7008 19.3685 28.7524 19.2439 28.7524 19.1139V17.1535C28.7524 17.0235 28.7008 16.8988 28.6089 16.8069C28.517 16.715 28.3923 16.6634 28.2623 16.6634Z" fill="#6C87B6"></path><path d="M31.8858 12.9975L26.4032 7.16528C26.3578 7.1172 26.3031 7.0788 26.2425 7.05241C26.1818 7.02602 26.1165 7.01218 26.0504 7.01171C25.9178 7.01637 25.7914 7.06856 25.6942 7.15874L20.9108 12.0891V3.10399C20.9108 2.97401 20.8592 2.84935 20.7673 2.75744C20.6754 2.66553 20.5507 2.61389 20.4207 2.61389H9.31184C9.18185 2.61389 9.05719 2.66553 8.96528 2.75744C8.87337 2.84935 8.82174 2.97401 8.82174 3.10399V9.80201H1.79698C1.667 9.80201 1.54234 9.85365 1.45043 9.94556C1.35852 10.0375 1.30688 10.1621 1.30688 10.2921V21.0743C1.30688 21.2043 1.35852 21.3289 1.45043 21.4208C1.54234 21.5128 1.667 21.5644 1.79698 21.5644C1.92697 21.5644 2.05162 21.5128 2.14354 21.4208C2.23545 21.3289 2.28708 21.2043 2.28708 21.0743V10.7822H8.82174V17.4802C8.82174 17.6102 8.87337 17.7349 8.96528 17.8268C9.05719 17.9187 9.18185 17.9703 9.31184 17.9703C9.44182 17.9703 9.56648 17.9187 9.65839 17.8268C9.7503 17.7349 9.80193 17.6102 9.80193 17.4802V3.59409H19.9306V27.7723H6.69797C6.56799 27.7723 6.44333 27.8239 6.35142 27.9159C6.25951 28.0078 6.20787 28.1324 6.20787 28.2624C6.20787 28.3924 6.25951 28.517 6.35142 28.609C6.44333 28.7009 6.56799 28.7525 6.69797 28.7525H26.3019C26.4319 28.7525 26.5566 28.7009 26.6485 28.609C26.7404 28.517 26.792 28.3924 26.792 28.2624C26.792 28.1324 26.7404 28.0078 26.6485 27.9159C26.5566 27.8239 26.4319 27.7723 26.3019 27.7723H20.9108V13.4778L26.0405 8.21082L31.0396 13.5268V20.4208C31.0396 20.5508 31.0912 20.6755 31.1831 20.7674C31.275 20.8593 31.3997 20.9109 31.5297 20.9109C31.6596 20.9109 31.7843 20.8593 31.8762 20.7674C31.9681 20.6755 32.0198 20.5508 32.0198 20.4208V13.3307C32.0189 13.2067 31.971 13.0876 31.8858 12.9975V12.9975Z" fill="#6C87B6"></path></svg> 