<?xml version="1.0" encoding="UTF-8"?> <svg xmlns="http://www.w3.org/2000/svg" width="18" height="22" viewBox="0 0 18 22" fill="none"><path d="M0.527473 13.851C0.408306 13.7849 0.335588 13.6584 0.339033 13.5222C0.340539 13.3829 0.421149 13.2627 0.543385 13.2029L3.10503 11.9447C3.28625 11.8555 3.50544 11.9306 3.59433 12.1118C3.68348 12.2928 3.6089 12.5122 3.42744 12.6013L2.14624 13.2305C4.59602 13.1708 7.12126 12.1204 9.20501 10.2653C11.6737 8.06747 13.1829 5.08549 13.4549 1.86875C13.472 1.6674 13.649 1.51822 13.8501 1.53523C14.0512 1.55224 14.2006 1.72901 14.1836 1.93036C13.8957 5.33461 12.3002 8.48861 9.69135 10.8116C7.4994 12.7632 4.83613 13.878 2.23733 13.9613L3.40627 14.6076C3.53644 14.6796 3.60558 14.8195 3.59381 14.9586C3.5896 15.0084 3.57512 15.0581 3.54944 15.1043C3.4518 15.2813 3.22916 15.3454 3.0525 15.2475L0.527473 13.851Z" fill="#6C87B6"></path><path d="M1.36562 17.6704C1.16356 17.6704 1 17.8342 1 18.036V21.6343C1 21.8361 1.16356 21.9999 1.36562 21.9999C1.56769 21.9999 1.73125 21.8361 1.73125 21.6343V18.036C1.73125 17.8342 1.56769 17.6704 1.36562 17.6704Z" fill="#6C87B6"></path><path d="M6.8749 16.1453C6.67283 16.1453 6.50928 16.3091 6.50928 16.5109V21.6343C6.50928 21.8361 6.67283 21.9999 6.8749 21.9999C7.07697 21.9999 7.24053 21.8361 7.24053 21.6343V16.5109C7.24053 16.3091 7.07697 16.1453 6.8749 16.1453Z" fill="#6C87B6"></path><path d="M12.2593 12.5083C12.0575 12.5083 11.8937 12.6721 11.8937 12.8739V21.6341C11.8937 21.8359 12.0575 21.9997 12.2593 21.9997C12.4611 21.9997 12.6249 21.8359 12.6249 21.6341V12.8739C12.6249 12.6721 12.4611 12.5083 12.2593 12.5083Z" fill="#6C87B6"></path><path d="M17.0069 3.74841C16.805 3.74841 16.6412 3.91197 16.6412 4.11404V21.6341C16.6412 21.8359 16.805 21.9997 17.0069 21.9997C17.2087 21.9997 17.3725 21.8359 17.3725 21.6341V4.11404C17.3725 3.91197 17.2089 3.74841 17.0069 3.74841Z" fill="#6C87B6"></path></svg> 