<?xml version="1.0" encoding="UTF-8"?> <svg xmlns="http://www.w3.org/2000/svg" width="29" height="26" viewBox="0 0 29 26" fill="none"><path d="M3.06298 21.6015C2.82336 21.6015 2.62939 21.7955 2.62939 22.0351C2.62939 22.2748 2.82336 22.4687 3.06298 22.4687H25.3704C25.6101 22.4687 25.804 22.2748 25.804 22.0351C25.804 21.7955 25.6101 21.6015 25.3704 21.6015H22.9507V8.80344H25.3704C25.6101 8.80344 25.804 8.60947 25.804 8.36985C25.804 8.13023 25.6101 7.93627 25.3704 7.93627H5.54722C5.50843 7.92493 5.46844 7.91687 5.42607 7.91687C5.3837 7.91687 5.34341 7.92493 5.30492 7.93627H3.06298C2.82336 7.93627 2.62939 8.13023 2.62939 8.36985C2.62939 8.60947 2.82336 8.80344 3.06298 8.80344H4.99427V21.6015H3.06298ZM11.7317 21.6015V8.80344H16.523V21.6015H11.7317ZM22.0835 21.6015H17.3901V8.80344H22.0835V21.6015ZM5.85787 8.80344H10.8645V21.6015H5.85787V8.80344Z" fill="#6C87B6"></path><path d="M27.9996 25.1328H0.433586C0.193965 25.1328 0 25.3268 0 25.5664C0 25.806 0.193965 26 0.433586 26H27.9996C28.2392 26 28.4332 25.806 28.4332 25.5664C28.4332 25.3268 28.2392 25.1328 27.9996 25.1328Z" fill="#6C87B6"></path><path d="M28.3737 7.93261L14.5906 0.0570336C14.4578 -0.0187619 14.2942 -0.0190603 14.1615 0.0564369L0.287893 7.93201C0.0796049 8.05018 0.00679347 8.31487 0.124963 8.52316C0.204936 8.664 0.351454 8.74278 0.502449 8.74278C0.574962 8.74278 0.64837 8.72458 0.716108 8.68639L14.3748 0.932562L27.9437 8.68549C28.1508 8.80366 28.4158 8.73234 28.5352 8.52405C28.6539 8.31636 28.5817 8.05167 28.3737 7.93261Z" fill="#6C87B6"></path></svg> 